<?xml version="1.0" encoding="UTF-8"?><svg width="14" height="13" viewBox="0 0 14 13" fill="none" xmlns="http://www.w3.org/2000/svg">
<path d="M4.2753 12.3196C4.21955 12.3196 4.16477 12.305 4.11639 12.2773C4.06801 12.2496 4.02771 12.2097 3.99949 12.1617C2.93331 10.3451 0.0907782 6.47752 0.0622192 6.43866C0.0166966 6.37679 -0.00503906 6.30061 0.000985826 6.22404C0.00701071 6.14746 0.0403937 6.07562 0.0950317 6.02163L0.969136 5.15792C1.02233 5.10535 1.09227 5.07309 1.16679 5.06674C1.24131 5.0604 1.3157 5.08037 1.37702 5.12319L4.20871 7.10051C6.10323 4.67085 7.86296 2.99261 9.02067 2.00236C10.3239 0.887626 11.1535 0.385973 11.1882 0.365185C11.2379 0.335347 11.2948 0.319583 11.3528 0.31958H12.7668C12.8316 0.319577 12.8949 0.339276 12.9483 0.376068C13.0017 0.412859 13.0426 0.465004 13.0657 0.525591C13.0888 0.586178 13.0929 0.652345 13.0775 0.715321C13.0621 0.778298 13.0279 0.835109 12.9795 0.878224C8.96377 4.45504 4.59683 12.0815 4.55331 12.158C4.52554 12.2068 4.48544 12.2474 4.43703 12.2757C4.38862 12.3041 4.33361 12.3192 4.2775 12.3196H4.2753Z" fill="#F04E23"/>
</svg>
